<svg width="28" height="28" viewBox="0 0 28 28" fill="none" xmlns="http://www.w3.org/2000/svg">
<path fill-rule="evenodd" clip-rule="evenodd" d="M0.666687 14C0.666687 6.63601 6.63602 0.666672 14 0.666672C21.364 0.666672 27.3334 6.63601 27.3334 14C27.3334 21.364 21.364 27.3333 14 27.3333C6.63602 27.3333 0.666687 21.364 0.666687 14ZM24.6667 14C24.6667 8.11867 19.8814 3.33334 14 3.33334C8.11869 3.33334 3.33335 8.11867 3.33335 14C3.33335 19.8813 8.11869 24.6667 14 24.6667C19.8814 24.6667 24.6667 19.8813 24.6667 14ZM19.3334 14L11.3334 20V8.00001L19.3334 14Z" fill="white"/>
</svg>
